# xmcd
# 
# Track frame offsets:
#     150
#     11633
#     24006
#     34882
#     45981
#     59722
#     70879
#     83217
#     94822
#     111393
#     122642
#     134919
#     147893
#     161351
# 
# Disc length: 2303
# 
# Revision: 10
# Processed by: cddbd v1.5.2PL0 Copyright (c) Steve Scherf et al.
# Submitted via: fre:ac v1.0.17
# 
DISCID=c008fd0e
DTITLE=Various Artist - 4 CD Country Collection - CD 1
DYEAR=1998
DGENRE=Country
TTITLE0=Patsy Cline - Walkin' After Midnight
TTITLE1=Jerry Fuller and Wynn Stewart - Wishful Thinking
TTITLE2=Roger Miller - Husbands And Wives
TTITLE3=Hank Locklin - Let Me Be The One
TTITLE4=Lee Greenwood - Dixie Road
TTITLE5=Merle Haggard - My Friends Are Gonna Be Strangers
TTITLE6=Jerry Wallace - In The Misty Moonlight
TTITLE7=Troy Shondell - This Time
TTITLE8=J.J. Barrie - No Charge
TTITLE9=Charlie Ryan - Hot Rod Lincoln
TTITLE10=Billie Jo Spears - Stay Away From The Apple Tree
TTITLE11=Bobby Bare - Detroit City
TTITLE12=T.Graham Brown - I Tell It Like It Used To Be
TTITLE13=Conway Twitty - To See My Angel Cry
EXTD=
EXTT0=
EXTT1=
EXTT2=
EXTT3=
EXTT4=
EXTT5=
EXTT6=
EXTT7=
EXTT8=
EXTT9=
EXTT10=
EXTT11=
EXTT12=
EXTT13=
PLAYORDER=
